# xmcd
#
# Track frame offsets: 
#        150
#        20264
#        31779
#        46026
#        75035
#        91281
#        107708
#        131609
#        145817
#        161065
#        175147
#        188953
#        204062
#        219147
#
# Disc length: 3103 seconds
#
# Revision: 2
# Processed by: cddbd v1.5.2PL0 Copyright (c) Steve Scherf et al.
# Submitted via: ExactAudioCopy v1.0b3
#
DISCID=a00c1d0e
DTITLE=Various Artist - Let's Dance Salsa [CD 1)
DYEAR=2014
DGENRE=Salsa
TTITLE0=Pupy Y Los Que Son Son - Qué Cosa Tiene La Vida
TTITLE1=Trio Matamoros - La Santiaguera
TTITLE2=Orquesta Fajardo - La Sayita
TTITLE3=The Next Generation - Pa' Lo Rumbero
TTITLE4=Hispanico Latino - Te Amaré
TTITLE5=David Fiallo - La Distancia
TTITLE6=Soneros De Verdad - Changüí A Reve
TTITLE7=Tito Gómez and La Orquesta Riverside - Las Gallegas Bailan Mambo
TTITLE8=Carlos Embale and Conjunto Cubason - Llego El Dulcerito
TTITLE9=Conjunto Chappottin Y Sus Estrellas - Los Jóvenes De La Defens
TTITLE9=a
TTITLE10=Grupo Mamey - Besos De Fuego
TTITLE11=Beny Moré Y Su Banda Gigante - Mi Chiquita
TTITLE12=Ela Calvo - Cuando Comienza El Amor
TTITLE13=Conjunto Rumbavana - Cuando Tengas Corazón
EXTD=YEAR: 2011
EXTT0=
EXTT1=
EXTT2=
EXTT3=
EXTT4=
EXTT5=
EXTT6=
EXTT7=
EXTT8=
EXTT9=
EXTT10=
EXTT11=
EXTT12=
EXTT13=
PLAYORDER=
